<svg version="1.1" id="Layer_1" xmlns="http://www.w3.org/2000/svg" xmlns:xlink="http://www.w3.org/1999/xlink" x="0px" y="0px"
	 width="100%" viewBox="0 0 1024 1024" enable-background="new 0 0 1024 1024" xml:space="preserve">
<path fill="#000000" opacity="1.000000" stroke="none" 
	d="
M659.550171,522.552856 
	C657.221619,511.628845 649.141541,506.621399 640.394958,502.524292 
	C626.503967,496.017456 611.811707,491.522034 597.540466,485.962860 
	C579.659241,478.997406 561.830872,471.875671 547.021912,459.167999 
	C526.720215,441.746796 520.044067,419.078125 522.382996,393.223389 
	C524.566772,369.083405 536.052002,350.354797 556.479614,337.368652 
	C569.229492,329.263397 583.592468,325.490662 598.444580,323.817078 
	C623.772339,320.963013 648.598511,323.578247 672.804382,331.660797 
	C684.406128,335.534729 695.197937,341.053741 705.460632,347.691132 
	C708.031250,349.353638 708.806030,350.784241 707.160767,353.703156 
	C698.818176,368.503479 690.580200,383.364471 682.488831,398.303467 
	C680.606079,401.779541 678.779663,401.692078 675.797668,399.771576 
	C661.181030,390.358063 645.289368,383.943542 628.029175,381.853851 
	C617.359253,380.561981 606.394897,379.516113 596.101990,384.456573 
	C582.491272,390.989594 580.370361,406.564667 591.886902,416.335388 
	C598.463928,421.915405 606.460144,424.967651 614.410217,427.992432 
	C635.721863,436.100769 657.636719,442.713165 677.913025,453.391357 
	C694.314392,462.028839 708.685486,472.820831 715.771301,490.857056 
	C727.157166,519.838379 722.626038,560.283508 698.872681,581.854187 
	C684.018799,595.343140 666.115784,602.240356 646.685486,605.048096 
	C611.879456,610.077576 578.339355,605.230652 546.404785,590.274536 
	C540.265930,587.399536 534.213440,584.291809 529.062256,580.268433 
	C528.971619,577.975037 530.365051,577.130066 531.406921,576.137207 
	C543.925476,564.207703 554.283020,550.567932 563.042175,535.722473 
	C565.132690,532.179321 566.866089,532.344604 570.165466,534.141479 
	C592.004028,546.035339 615.164612,551.424927 639.946472,546.648621 
	C653.281494,544.078491 659.765564,535.795166 659.550171,522.552856 
z"/>
<path fill="#000000" opacity="1.000000" stroke="none" 
	d="
M373.016663,511.000000 
	C373.006439,517.498535 373.051392,523.497925 372.965881,529.495361 
	C372.921204,532.628784 374.232819,534.033020 377.432190,534.007568 
	C399.757111,533.829956 422.208710,535.695251 444.377380,533.324890 
	C472.466583,530.321533 494.251465,515.680664 509.414612,491.739777 
	C516.971741,479.807922 522.118530,466.860718 523.800842,452.700317 
	C523.901733,451.851227 524.135254,451.066650 525.350281,450.641571 
	C525.714966,450.896545 526.371033,451.146088 526.708984,451.621674 
	C539.586975,469.746033 558.186401,479.947021 577.900940,488.582123 
	C585.142456,491.753937 585.136292,491.670013 582.587646,499.154449 
	C580.160156,506.283203 576.720520,512.928223 573.189575,519.548279 
	C571.590454,522.546631 570.043884,523.244812 567.000122,521.067383 
	C561.902771,517.420837 561.694031,517.568298 558.579834,523.265076 
	C547.777588,543.025391 534.416199,560.762512 517.325134,575.544922 
	C506.881134,584.578186 494.205658,589.242004 481.356964,593.427002 
	C464.920807,598.780518 447.912811,601.008240 430.718384,601.101807 
	C390.061646,601.322937 349.402588,601.093506 308.745026,601.219421 
	C304.161621,601.233643 302.695435,599.763855 302.700409,595.179382 
	C302.798126,505.364258 302.763062,415.549011 302.776184,325.733795 
	C302.776428,324.107269 302.406433,322.385620 303.465515,320.905914 
	C305.114471,320.035767 306.353516,321.063599 307.648376,321.759857 
	C328.040619,332.725677 348.399200,343.754883 368.854645,354.601501 
	C371.876556,356.203918 373.197449,357.979401 373.187225,361.531311 
	C373.044312,411.187317 373.049011,460.843689 373.016663,511.000000 
z"/>
<path fill="#000000" opacity="1.000000" stroke="none" 
	d="
M513.166016,380.679932 
	C510.259583,376.754883 507.863770,372.764984 505.148468,369.005768 
	C488.195038,345.534363 465.307709,332.966156 436.325195,331.113556 
	C415.003510,329.750671 393.683624,330.690063 372.365234,330.429504 
	C368.415588,330.381256 364.990784,329.591858 361.486176,327.641998 
	C325.674957,307.717621 289.775360,287.952179 253.911453,268.122498 
	C252.644943,267.422241 251.492218,266.516235 250.064346,265.556885 
	C252.062546,263.362946 254.328293,264.019897 256.333527,264.036865 
	C272.327087,264.172363 288.319946,264.540009 304.313019,264.539917 
	C324.793854,264.539825 345.274872,264.114746 365.755432,264.143768 
	C390.903870,264.179382 416.086609,263.724548 441.192474,264.856995 
	C487.054871,266.925659 524.943115,285.686646 554.055908,321.573273 
	C556.538879,324.633972 555.970398,326.290955 552.833130,328.167206 
	C533.656311,339.635773 520.796875,355.944122 515.208008,377.748627 
	C514.917297,378.882660 514.548889,379.990875 513.166016,380.679932 
z"/>
<path fill="#000000" opacity="1.000000" stroke="none" 
	d="
M293.333618,762.537231 
	C285.279297,766.289185 277.116913,767.428894 268.686066,767.312988 
	C261.191071,767.209961 253.690704,767.150208 246.198730,767.326477 
	C242.434494,767.414978 240.775406,766.212219 240.793961,762.211121 
	C240.904388,738.390076 240.837204,714.568298 240.867844,690.746765 
	C240.870804,688.455627 240.586227,685.694885 244.122177,685.749023 
	C256.598938,685.940002 269.182648,684.428528 281.531982,686.428711 
	C300.522949,689.504578 311.931824,701.319824 315.065857,719.782043 
	C317.988525,736.998901 309.655304,753.589111 293.333618,762.537231 
M264.501495,701.478638 
	C261.284210,701.274414 258.922546,701.973511 258.937592,705.954834 
	C258.989075,719.580872 258.956146,733.207153 258.926239,746.833374 
	C258.920441,749.476440 260.021393,750.861145 262.788025,750.815186 
	C267.605072,750.735168 272.448273,751.032166 277.236328,750.636597 
	C288.740662,749.686218 297.549713,738.902405 297.550598,726.151062 
	C297.551453,713.723328 289.221985,703.585144 277.792480,702.311218 
	C273.671143,701.851868 269.506897,701.777222 264.501495,701.478638 
z"/>
<path fill="#000000" opacity="1.000000" stroke="none" 
	d="
M340.145630,707.858398 
	C346.682831,705.461426 352.879639,704.319336 359.564789,705.557434 
	C375.171539,708.447876 386.548248,724.159058 384.208954,739.846802 
	C383.718994,743.132812 381.690216,743.266541 379.220428,743.265442 
	C368.559967,743.260742 357.899506,743.283264 347.239044,743.294922 
	C345.265228,743.297119 343.291382,743.295227 341.264893,743.295227 
	C341.959442,749.009216 346.620972,752.969788 353.047089,753.650635 
	C358.011993,754.176575 362.797729,753.357971 366.877716,750.480469 
	C369.771790,748.439392 371.540100,748.593201 373.980713,751.292419 
	C380.343170,758.329102 380.370880,759.272278 371.987488,764.113647 
	C355.441162,773.669067 328.167572,767.786194 323.136719,744.672913 
	C319.818848,729.429504 326.168671,715.269714 340.145630,707.858398 
M364.760498,731.198547 
	C365.912720,730.977600 366.438416,730.411682 366.223785,729.127197 
	C365.318207,723.707703 358.812988,718.980530 352.820282,719.450500 
	C346.225983,719.967590 341.049316,724.838928 340.783081,731.210449 
	C348.543365,731.210449 356.291626,731.210449 364.760498,731.198547 
z"/>
<path fill="#000000" opacity="1.000000" stroke="none" 
	d="
M421.416016,740.217163 
	C425.285828,730.104065 429.095276,720.341431 432.710846,710.507446 
	C433.707977,707.795288 435.106720,706.431519 438.137665,706.566711 
	C442.416595,706.757629 446.710388,706.615051 450.884155,706.615051 
	C452.024017,709.331726 450.571777,711.226440 449.817719,713.134521 
	C443.276855,729.684998 436.581116,746.174438 430.074677,762.738281 
	C428.807648,765.963806 427.024048,767.345947 423.424713,767.349121 
	C412.070831,767.359070 411.875275,767.579956 407.512512,757.222595 
	C401.184967,742.200623 395.163849,727.049316 389.044189,711.940186 
	C388.492615,710.578430 388.175323,709.121765 387.519043,706.946045 
	C393.326202,705.487671 398.862030,705.681885 404.337738,706.539246 
	C406.319550,706.849670 406.494965,709.315735 407.124969,710.985046 
	C411.222839,721.843811 415.274017,732.720215 419.356049,743.632385 
	C421.118927,742.935669 420.593872,741.414062 421.416016,740.217163 
z"/>
<path fill="#000000" opacity="1.000000" stroke="none" 
	d="
M714.672302,748.306763 
	C709.191223,766.900818 682.570374,776.006775 665.868835,756.872437 
	C665.868835,758.806213 665.857422,760.388184 665.871399,761.969849 
	C665.894714,764.612366 665.261780,766.417114 661.973328,766.396301 
	C658.666870,766.375305 658.124939,764.489319 658.120728,761.894470 
	C658.093567,745.089661 658.058655,728.284790 658.037842,711.479980 
	C658.028381,703.826294 658.038147,696.172607 658.054810,688.518921 
	C658.060547,685.857300 658.295166,683.591980 661.994385,683.587524 
	C665.746399,683.582947 665.872803,685.938354 665.878967,688.552795 
	C665.900940,697.841248 665.887573,707.129761 665.887573,716.081848 
	C667.586365,716.956238 668.082336,716.088684 668.604980,715.541504 
	C677.163757,706.581421 687.512634,705.450745 698.411438,709.657166 
	C709.782532,714.045898 715.190857,723.269287 716.265869,735.134705 
	C716.657593,739.458374 716.313843,743.781677 714.672302,748.306763 
M667.063232,746.271606 
	C671.302307,756.453491 679.831848,761.854187 689.679565,760.591675 
	C699.718567,759.304749 707.370422,751.070496 708.598022,740.233398 
	C709.775757,729.836121 703.929077,719.716919 694.611145,716.025085 
	C685.378052,712.366821 675.632446,715.022095 669.696655,723.106445 
	C664.654541,729.973633 664.519043,737.635437 667.063232,746.271606 
z"/>
<path fill="#000000" opacity="1.000000" stroke="none" 
	d="
M508.415588,762.559326 
	C494.940186,771.434082 471.751892,767.726746 459.223877,756.374573 
	C455.158447,752.690735 459.909363,751.247925 461.801666,748.521729 
	C467.766846,753.556580 473.962280,757.740173 481.527344,759.093201 
	C488.138763,760.275635 494.743744,760.733948 501.131775,757.880310 
	C506.342773,755.552551 509.449677,751.498474 509.432892,745.874878 
	C509.416901,740.499146 506.591309,736.557800 501.474762,734.217773 
	C495.517395,731.492981 489.141113,730.247559 482.942566,728.369690 
	C479.762909,727.406433 476.542084,726.494690 473.494629,725.196350 
	C466.548645,722.236938 462.067841,717.302185 461.684509,709.366394 
	C461.269409,700.772278 464.421417,694.087952 472.169159,689.937195 
	C482.908173,684.183777 503.239502,686.374512 512.546448,694.241699 
	C516.716797,697.766907 512.299316,699.455139 510.880127,702.525574 
	C504.992523,698.833984 499.140045,695.784302 492.466492,694.780090 
	C488.296875,694.152710 484.213348,694.044617 480.112549,695.176514 
	C473.916565,696.886658 470.582153,700.309631 470.171326,705.534851 
	C469.650604,712.157898 471.606079,715.439270 478.113617,718.402222 
	C483.439453,720.827209 489.179993,721.989319 494.770782,723.607422 
	C497.801666,724.484680 500.799866,725.489868 503.773224,726.548523 
	C522.197937,733.108948 520.510437,755.012390 508.415588,762.559326 
z"/>
<path fill="#000000" opacity="1.000000" stroke="none" 
	d="
M777.358826,759.446899 
	C765.054382,770.110718 746.789917,770.237183 735.523132,759.992126 
	C724.750122,750.195862 723.025085,731.096313 731.997803,718.794434 
	C739.126526,709.020569 749.145752,705.808472 760.651550,707.864441 
	C771.412842,709.787354 778.385071,716.494446 781.491516,727.065430 
	C785.450928,740.539001 784.879883,741.302551 770.935730,741.294678 
	C760.109863,741.288574 749.283386,741.372681 738.458557,741.270020 
	C734.580444,741.233276 733.865234,742.615540 735.209595,746.130432 
	C740.848999,760.874512 757.804626,765.216125 771.721863,755.322815 
	C773.397278,754.131775 774.822021,752.634705 776.894653,754.599243 
	C778.348572,755.977295 779.484009,757.330444 777.358826,759.446899 
M767.729919,718.721924 
	C754.712891,709.954895 738.899780,715.159668 734.791382,729.508362 
	C733.791626,732.999878 734.336060,734.868835 738.535767,734.817505 
	C749.513794,734.683105 760.494812,734.798340 771.474426,734.763489 
	C772.730957,734.759521 774.196533,735.096985 775.054443,733.694458 
	C774.393433,727.141418 773.053345,724.277405 767.729919,718.721924 
z"/>
<path fill="#000000" opacity="1.000000" stroke="none" 
	d="
M456.893982,416.791321 
	C449.872711,435.724915 442.979919,454.293365 436.145538,472.883301 
	C433.361511,480.455963 433.418793,480.493958 425.222870,480.312988 
	C423.768311,480.280884 422.202698,480.671814 420.890686,479.526917 
	C420.115356,477.180176 421.730255,475.394592 422.453766,473.435883 
	C431.451691,449.077972 440.571564,424.764801 449.462769,400.368195 
	C450.777496,396.760681 452.688782,395.274200 456.432983,395.647858 
	C458.707184,395.874817 461.022522,395.689697 464.698151,395.689697 
	C461.908325,403.252899 459.477142,409.843872 456.893982,416.791321 
z"/>
<path fill="#000000" opacity="1.000000" stroke="none" 
	d="
M548.673218,716.553101 
	C535.709534,723.604126 531.874146,738.373352 539.571533,750.409119 
	C546.885254,761.845032 561.492432,764.140503 572.647522,755.354614 
	C575.147766,753.385498 576.905090,753.155334 578.969116,755.484924 
	C581.301697,758.117676 578.842834,759.325500 577.322510,760.666626 
	C568.408447,768.529785 553.316406,769.868774 542.681458,763.800903 
	C531.835999,757.612976 525.728882,744.531189 527.982971,732.316101 
	C530.439697,719.002930 539.800537,709.620300 552.848816,707.713013 
	C563.515015,706.153870 572.849915,708.680664 580.293945,717.095886 
	C577.798828,720.955139 575.889587,722.750427 571.571716,719.222412 
	C564.908020,713.777832 557.093323,712.925537 548.673218,716.553101 
z"/>
<path fill="#000000" opacity="1.000000" stroke="none" 
	d="
M490.906342,448.977356 
	C484.198883,452.575287 477.809021,455.986542 471.372131,459.422882 
	C468.088348,451.393433 469.352081,447.944946 476.198822,444.499023 
	C478.724884,443.227692 481.192963,441.838898 483.663269,440.460266 
	C484.671448,439.897583 485.615265,439.219666 487.239746,438.175537 
	C483.160950,435.839905 479.540375,433.693695 475.852234,431.670685 
	C469.265747,428.057861 468.237854,425.278748 470.806335,417.533051 
	C472.256805,416.808411 473.322662,417.838379 474.442474,418.439667 
	C482.947174,423.006256 491.402283,427.666565 499.949524,432.151550 
	C502.577820,433.530701 503.988861,435.287811 504.037476,438.359497 
	C504.085388,441.389618 502.351959,442.848785 500.024719,444.071747 
	C497.078217,445.620148 494.156403,447.215515 490.906342,448.977356 
z"/>
<path fill="#000000" opacity="1.000000" stroke="none" 
	d="
M403.481079,435.398285 
	C402.106720,436.288635 401.032410,437.009399 399.295776,438.174530 
	C402.872681,440.253876 405.924774,442.129669 409.069122,443.835358 
	C416.068420,447.632141 417.072662,450.268951 414.473969,458.602478 
	C412.636658,459.094177 411.339783,457.832001 409.919098,457.087433 
	C402.114319,452.997040 394.322723,448.880920 386.551636,444.726898 
	C381.139954,441.834015 380.825684,435.146790 386.105316,432.164246 
	C395.319214,426.959015 404.661652,421.981354 414.031067,416.864105 
	C417.039764,424.995056 415.856995,428.482269 409.407166,432.004303 
	C407.510498,433.040039 405.655334,434.151794 403.481079,435.398285 
z"/>
<path fill="#000000" opacity="1.000000" stroke="none" 
	d="
M599.322266,738.174377 
	C599.316101,746.477234 599.284180,754.304077 599.318298,762.130676 
	C599.328979,764.584412 598.864685,766.309326 595.815674,766.365234 
	C592.725769,766.421875 591.719482,765.005066 591.724609,762.136963 
	C591.754089,745.651001 591.753723,729.164612 591.666016,712.678894 
	C591.650330,709.721191 592.728516,708.527466 595.749512,708.504272 
	C598.820129,708.480713 599.313477,710.084656 599.326599,712.589661 
	C599.336792,714.523560 598.849792,716.528687 600.022827,719.125366 
	C604.032715,713.619934 608.946655,709.837891 615.286377,708.320374 
	C617.412903,707.811340 620.129883,706.438354 621.059387,709.832764 
	C621.945557,713.068604 620.803833,714.784668 617.024719,715.593140 
	C605.608337,718.035400 598.087646,728.104370 599.322266,738.174377 
z"/>
<path fill="#000000" opacity="1.000000" stroke="none" 
	d="
M632.060181,748.980347 
	C632.058899,736.824951 632.072327,725.165833 632.044312,713.506836 
	C632.037415,710.619751 632.266296,708.084961 636.140747,708.114868 
	C640.111450,708.145569 640.068420,710.874207 640.071228,713.650757 
	C640.087280,729.473755 640.100586,745.296814 640.133179,761.119812 
	C640.138977,763.952881 640.092224,766.363037 636.067932,766.429321 
	C632.065613,766.495239 632.447144,763.900024 632.353577,761.459167 
	C632.200623,757.467102 632.152222,753.471008 632.060181,748.980347 
z"/>
<path fill="#000000" opacity="1.000000" stroke="none" 
	d="
M637.673340,697.110107 
	C632.575378,696.903809 630.207642,694.762329 630.865295,691.201477 
	C631.522034,687.645447 633.867371,686.188171 637.360046,686.843262 
	C639.502502,687.245056 640.817017,688.760986 641.176941,690.898987 
	C641.638123,693.638977 640.647034,695.746826 637.673340,697.110107 
z"/>
</svg>